<svg width="133" height="146" viewBox="0 0 133 146" fill="none" xmlns="http://www.w3.org/2000/svg">
<rect width="133" height="146" rx="20" fill="#0E5BB6"/>
<rect width="2" height="119" rx="1" transform="matrix(-1 0 0 1 69 14)" fill="white"/>
<rect opacity="0.9" width="2" height="119" rx="1" transform="matrix(0 -1 -1 0 127.5 75.5)" fill="white"/>
<path d="M80 102.001C79.9998 100.407 80.2856 98.8281 80.8408 97.3576C81.396 95.8871 82.2095 94.5543 83.2336 93.4371C84.2578 92.3199 85.4721 91.4407 86.8056 90.8509C88.1391 90.2611 89.565 89.9725 91 90.0021C92.6979 89.992 94.3784 90.3831 95.93 91.1493C97.4816 91.9155 98.8689 93.0393 100 94.4463C101.131 93.0393 102.518 91.9155 104.07 91.1493C105.622 90.3831 107.302 89.992 109 90.0021C110.435 89.9725 111.861 90.2611 113.194 90.8509C114.528 91.4407 115.742 92.3199 116.766 93.4371C117.791 94.5543 118.604 95.8871 119.159 97.3576C119.714 98.8281 120 100.407 120 102.001C120 113.903 107.242 122.889 100 130C92.774 122.829 80 113.912 80 102.001Z" fill="#FFFEFE"/>
<path d="M45.794 106.566C51.3114 106.566 55.7254 111.208 55.7254 117.01C55.7254 119.052 55.1736 120.978 54.2026 122.58L61 129.774L57.9323 133L51.0466 125.875C49.5238 126.873 47.7141 127.453 45.794 127.453C40.2766 127.453 35.8627 122.812 35.8627 117.01C35.8627 111.208 40.2766 106.566 45.794 106.566ZM45.794 111.208C44.3307 111.208 42.9273 111.819 41.8926 112.907C40.8579 113.995 40.2766 115.471 40.2766 117.01C40.2766 118.549 40.8579 120.024 41.8926 121.112C42.9273 122.2 44.3307 122.812 45.794 122.812C47.2573 122.812 48.6607 122.2 49.6954 121.112C50.7301 120.024 51.3114 118.549 51.3114 117.01C51.3114 115.471 50.7301 113.995 49.6954 112.907C48.6607 111.819 47.2573 111.208 45.794 111.208ZM33.6557 88C35.997 88 38.2424 88.978 39.898 90.719C41.5535 92.4599 42.4836 94.8211 42.4836 97.2831C42.4836 99.395 41.7994 101.345 40.6739 102.923C38.7759 103.665 37.0765 104.849 35.6641 106.334L33.6557 106.566C31.3144 106.566 29.069 105.588 27.4135 103.847C25.7579 102.106 24.8279 99.7452 24.8279 97.2831C24.8279 94.8211 25.7579 92.4599 27.4135 90.719C29.069 88.978 31.3144 88 33.6557 88M16 125.133V120.491C16 115.571 23.3051 111.533 32.5522 111.208C31.846 113.018 31.4487 114.968 31.4487 117.01C31.4487 120.004 32.2874 122.812 33.6557 125.133H16Z" fill="white"/>
<path d="M99.5753 20.5985V35.4006C99.5753 35.7189 99.7099 36.0242 99.9493 36.2492C100.189 36.4743 100.513 36.6007 100.852 36.6007C101.191 36.6007 101.515 36.4743 101.755 36.2492C101.994 36.0242 102.129 35.7189 102.129 35.4006V23.0002C102.129 22.5758 102.308 22.1688 102.627 21.8687C102.946 21.5687 103.379 21.4001 103.831 21.4001C104.282 21.4001 104.715 21.5687 105.034 21.8687C105.354 22.1688 105.533 22.5758 105.533 23.0002V36.2007C105.533 36.4887 105.64 36.7527 105.821 36.9591C103.985 37.394 102.275 38.2072 100.814 39.3397C99.3535 40.4723 98.1791 41.896 97.3759 43.5077C96.5727 45.1194 96.1608 46.8788 96.17 48.6585C96.1791 50.4383 96.6091 52.1939 97.4289 53.7982L96.3565 57.2415C95.5811 57.0574 94.8575 56.7174 94.2354 56.2451C93.6133 55.7727 93.1075 55.1792 92.7529 54.5054L91.5682 52.2525C91.0709 51.3058 90.4859 50.402 89.82 49.5516L85.0709 43.4938L80.5907 40.8137C80.4095 40.7052 80.2604 40.5555 80.1572 40.3784C80.0539 40.2014 79.9999 40.0027 80 39.8008C80 39.0216 80.3643 38.3784 80.9345 37.9303C81.4622 37.5143 82.1244 37.2951 82.7491 37.1847C83.9968 36.9607 85.51 37.0887 86.8633 37.4407C88.0923 37.7335 89.2855 38.2792 90.2132 38.78V22.9986C90.2132 22.5742 90.3926 22.1672 90.7118 21.8671C91.031 21.5671 91.464 21.3985 91.9154 21.3985C92.3669 21.3985 92.7998 21.5671 93.1191 21.8671C93.4383 22.1672 93.6176 22.5742 93.6176 22.9986V35.4006C93.6176 35.7189 93.7521 36.0242 93.9916 36.2492C94.231 36.4743 94.5557 36.6007 94.8943 36.6007C95.2329 36.6007 95.5576 36.4743 95.797 36.2492C96.0364 36.0242 96.1709 35.7189 96.1709 35.4006V20.6001C96.1709 20.1757 96.3503 19.7687 96.6695 19.4686C96.9887 19.1686 97.4217 19 97.8731 19C98.3246 19 98.7576 19.1686 99.0768 19.4686C99.396 19.7687 99.5753 20.1757 99.5753 20.6001V20.5985ZM108.939 36.5991C108.624 36.5991 108.311 36.6103 108.003 36.6311C108.059 36.4932 108.087 36.3467 108.086 36.1991V26.9955C108.086 26.5712 108.266 26.1642 108.585 25.8641C108.904 25.564 109.337 25.3955 109.789 25.3955C110.24 25.3955 110.673 25.564 110.992 25.8641C111.311 26.1642 111.491 26.5712 111.491 26.9955V36.8391C110.651 36.6792 109.796 36.5988 108.939 36.5991V36.5991ZM108.939 59C111.366 58.9993 113.725 58.2486 115.653 56.8635C117.582 55.4785 118.972 53.536 119.61 51.3351C120.249 49.1343 120.1 46.7972 119.186 44.6839C118.272 42.5706 116.645 40.7983 114.554 39.6399C112.464 38.4815 110.026 38.0013 107.616 38.2734C105.207 38.5454 102.959 39.5545 101.22 41.1453C99.4806 42.736 98.3459 44.8202 97.9906 47.0768C97.6353 49.3334 98.0791 51.6372 99.2536 53.6334L97.9021 57.9743C97.8594 58.112 97.8568 58.258 97.8947 58.3969C97.9325 58.5358 98.0094 58.6626 98.1173 58.7641C98.2252 58.8655 98.3601 58.9378 98.5079 58.9734C98.6557 59.0089 98.811 59.0065 98.9574 58.9664L103.581 57.7023C105.22 58.5564 107.065 59.0031 108.939 59V59ZM103.833 46.9995C103.833 46.7873 103.922 46.5838 104.082 46.4338C104.241 46.2838 104.458 46.1995 104.684 46.1995H113.195C113.42 46.1995 113.637 46.2838 113.797 46.4338C113.956 46.5838 114.046 46.7873 114.046 46.9995C114.046 47.2117 113.956 47.4152 113.797 47.5652C113.637 47.7153 113.42 47.7995 113.195 47.7995H104.684C104.458 47.7995 104.241 47.7153 104.082 47.5652C103.922 47.4152 103.833 47.2117 103.833 46.9995ZM104.682 50.9997C104.456 50.9997 104.24 50.9154 104.08 50.7653C103.921 50.6153 103.831 50.4118 103.831 50.1996C103.831 49.9875 103.921 49.784 104.08 49.6339C104.24 49.4839 104.456 49.3996 104.682 49.3996H108.937C109.163 49.3996 109.38 49.4839 109.539 49.6339C109.699 49.784 109.789 49.9875 109.789 50.1996C109.789 50.4118 109.699 50.6153 109.539 50.7653C109.38 50.9154 109.163 50.9997 108.937 50.9997H104.682Z" fill="white"/>
<path d="M22.2137 31.9775C24.0874 30.3409 25.6418 31.4696 27.7164 34.1695C27.9493 34.4742 28.2626 34.1175 28.4414 33.9437C28.6181 33.7676 31.3554 30.9978 31.4899 30.8714C31.6225 30.7382 31.7831 30.4899 31.5723 30.2122C31.0643 29.5059 30.5669 28.7902 30.0801 28.0654C26.4492 22.7266 40.013 19.1057 37.9304 19.0492C36.8701 19.0176 32.6166 18.9612 31.9799 19.0402C29.4033 19.3449 26.168 22.0516 24.5393 23.3135C22.4085 24.9524 21.6133 25.9141 21.4827 26.0472C20.8802 26.6387 21.3863 28.0044 20.2938 29.0812C19.1391 30.2167 18.4181 29.3566 17.7494 30.0158C17.418 30.3454 16.4902 31.1264 16.2251 31.386C15.958 31.6502 15.9098 32.0949 16.1829 32.4493C16.1829 32.4493 18.7214 35.6007 18.9342 35.8806C19.1451 36.156 19.7195 36.3953 20.0729 36.0409C20.4284 35.6887 21.3421 34.7925 21.4948 34.6345C21.6514 34.4855 21.3944 32.6908 22.2137 31.9775V31.9775ZM33.6769 33.1446C33.4359 32.8308 33.1367 32.8218 32.8796 33.0791L29.9998 35.9054C29.8886 36.0188 29.8208 36.1762 29.8107 36.3446C29.8006 36.513 29.8489 36.6792 29.9456 36.8084L46.6021 58.1162C46.9917 58.6196 47.6665 58.6715 48.1103 58.2359L50.0584 56.4006C50.2728 56.1883 50.404 55.8895 50.4236 55.5691C50.4431 55.2487 50.3494 54.9326 50.1628 54.6894L33.6769 33.1446ZM55.8864 24.0765C55.7377 22.9613 55.2236 23.1939 54.9565 23.6657C54.6894 24.142 53.5086 26.1533 53.0226 27.0653C52.5406 27.9683 51.3517 29.7539 49.1386 27.9909C46.8331 26.1601 47.6344 24.8824 48.036 24.0223C48.4397 23.1577 49.6788 20.7333 49.8575 20.433C50.0363 20.1283 49.8274 19.2434 49.1125 19.6136C48.3955 19.9838 44.0456 21.9274 43.4431 24.7154C42.8266 27.5507 43.9593 30.0858 41.7361 32.6028L39.039 35.7632L41.7482 39.2983L45.0698 35.7542C45.8611 34.8602 47.552 33.9911 49.0823 34.3839C52.3618 35.2169 54.1512 33.8331 55.2297 31.5441C56.1976 29.4988 56.037 25.1917 55.8864 24.0765V24.0765ZM21.4185 54.9197C21.2176 55.1472 21.1049 55.4547 21.1049 55.7753C21.1049 56.0958 21.2176 56.4033 21.4185 56.6308L23.3283 58.7302C23.746 59.202 24.4088 59.0034 24.8265 58.5316L34.6811 47.6418L31.6626 43.7725L21.4185 54.9197V54.9197Z" fill="white"/>
</svg>
